<svg id="Capa_1" data-name="Capa 1" xmlns="http://www.w3.org/2000/svg" xmlns:xlink="http://www.w3.org/1999/xlink" viewBox="0 0 1313 593"><defs><style>.cls-1,.cls-6{fill:none;}.cls-2{fill:#e4e4e4;}.cls-3{opacity:0.25;}.cls-4{clip-path:url(#clip-path);}.cls-5{fill:url(#Unnamed_Pattern);}.cls-6{stroke:#e4e4e4;stroke-miterlimit:10;}</style><clipPath id="clip-path"><rect class="cls-1" width="1313" height="593"/></clipPath><pattern id="Unnamed_Pattern" data-name="Unnamed Pattern" width="420" height="270" patternTransform="matrix(1, 0, 0, -1, -72, 16283)" patternUnits="userSpaceOnUse" viewBox="0 0 420 270"><rect class="cls-1" width="420" height="270"/><path class="cls-2" d="M378.15,113l0-3.21a1.13,1.13,0,0,0-1.13-1.12h0a1.13,1.13,0,0,0-1.12,1.13l0,3.21a.41.41,0,0,1-.11.28.39.39,0,0,1-.28.12l-10.58,0h0a.38.38,0,0,1-.39-.39l0-3.19a1.13,1.13,0,0,0-1.12-1.11h0a1.11,1.11,0,0,0-1.11,1.13l0,3.18a2.63,2.63,0,0,0,2.24,2.59v2.58l-6.45,6.54a3.07,3.07,0,0,0-.91,2.23l.08,13.34a3.33,3.33,0,0,0,3.34,3.32h0a3.35,3.35,0,0,0,3.32-3.36l0-6.41a3.39,3.39,0,0,0,1.31.24,3.49,3.49,0,0,0,2.5-1.05l6.71-6.8A5.25,5.25,0,0,0,376,122.5l0-6.92a2.54,2.54,0,0,0,1.44-.74,2.63,2.63,0,0,0,.77-1.87m-4.42,9.54a3,3,0,0,1-.88,2.18l-6.71,6.79a1.31,1.31,0,0,1-.93.39h0a1.26,1.26,0,0,1-.92-.38h0a1.3,1.3,0,0,1,0-1.85l4.23-4.29a1.11,1.11,0,0,0,0-1.58,1.08,1.08,0,0,0-.78-.33,1.14,1.14,0,0,0-.8.34l-4.24,4.29a3.54,3.54,0,0,0-1,2.49v.06l.06,9.67a1.11,1.11,0,0,1-1.1,1.11,1.06,1.06,0,0,1-.78-.32,1.07,1.07,0,0,1-.33-.78L359.43,127a.94.94,0,0,1,.26-.65l6.78-6.86a1.08,1.08,0,0,0,.32-.79v-3l6.91,0Z"/><path class="cls-2" d="M402.65,124.75l-6.45-6.54v-2.58a2.64,2.64,0,0,0,2.24-2.59l0-3.18a1.13,1.13,0,0,0-1.12-1.13h0a1.11,1.11,0,0,0-1.12,1.11l0,3.19a.4.4,0,0,1-.39.39h0l-10.58,0a.49.49,0,0,1-.28-.12.41.41,0,0,1-.11-.28l0-3.21a1.12,1.12,0,0,0-1.11-1.13h0a1.12,1.12,0,0,0-1.12,1.12l0,3.21a2.62,2.62,0,0,0,.76,1.87,2.57,2.57,0,0,0,1.45.74l0,6.92a5.24,5.24,0,0,0,1.53,3.76l6.71,6.8a3.56,3.56,0,0,0,3.81.81l0,6.41a3.35,3.35,0,0,0,6.7,0l.08-13.34a3.16,3.16,0,0,0-.91-2.23M401.32,127l-.09,13.33a1.12,1.12,0,0,1-.32.78,1.1,1.1,0,0,1-.78.32h0a1.11,1.11,0,0,1-.78-.33,1.09,1.09,0,0,1-.31-.78l.06-9.67v0a3.54,3.54,0,0,0-1-2.53l-4.23-4.29a1.11,1.11,0,0,0-1.59,0,1.12,1.12,0,0,0,0,1.58l4.24,4.29a1.33,1.33,0,0,1,.37,1,1.31,1.31,0,0,1-.38.81,1.29,1.29,0,0,1-.92.38h0a1.27,1.27,0,0,1-.92-.39l-6.72-6.79a3.07,3.07,0,0,1-.88-2.18l0-6.89,6.92,0,0,3a1.17,1.17,0,0,0,.32.8l6.78,6.86a.93.93,0,0,1,.27.65"/><path class="cls-2" d="M387.29,133a8.73,8.73,0,0,0-3.82-2.22h0a14.1,14.1,0,0,0-2-.33v-3.14a1.13,1.13,0,0,0-2.25,0v3.13a11,11,0,0,0-1.93.35,8.7,8.7,0,0,0-3.81,2.22c-2.16,2.16-3,5.33-2.44,8.91a18.18,18.18,0,0,0,5.24,9.71,20.38,20.38,0,0,0,3.51,2.82,1.13,1.13,0,0,0,1.2,0,20.38,20.38,0,0,0,3.51-2.82,18.19,18.19,0,0,0,5.25-9.71c.59-3.58-.28-6.75-2.44-8.91m.22,8.55A15.94,15.94,0,0,1,382.9,150a18.71,18.71,0,0,1-2.53,2.12,18,18,0,0,1-2.52-2.12,15.89,15.89,0,0,1-4.62-8.48,7.78,7.78,0,0,1,1.82-7,6.45,6.45,0,0,1,2.84-1.64,8,8,0,0,1,1.31-.26v1.91l-3.86,3.87a1.12,1.12,0,0,0,1.58,1.59l2.28-2.29v3.56L377.43,143a1.14,1.14,0,0,0,0,1.59,1.12,1.12,0,0,0,1.59,0l.18-.19v2.84a1.13,1.13,0,0,0,2.25,0v-2.84l.18.19a1.12,1.12,0,0,0,1.59,0,1.14,1.14,0,0,0,0-1.59l-1.77-1.77v-3.56l2.28,2.29a1.12,1.12,0,0,0,1.58-1.59l-3.86-3.87v-1.9c.47.06.95.14,1.43.25a6.7,6.7,0,0,1,2.82,1.64,7.78,7.78,0,0,1,1.81,7"/><path class="cls-2" d="M380.32,161.15A1.13,1.13,0,0,1,379.2,160v-2.19a1.13,1.13,0,0,1,2.25,0V160a1.13,1.13,0,0,1-1.13,1.12"/><path class="cls-2" d="M368.22,148H366a1.12,1.12,0,0,1,0-2.24h2.19a1.12,1.12,0,0,1,0,2.24"/><path class="cls-2" d="M394.62,148h-2.19a1.12,1.12,0,0,1,0-2.24h2.19a1.12,1.12,0,0,1,0,2.24"/><path class="cls-2" d="M373.35,155.41,371.8,157a1.11,1.11,0,0,1-1.58,0,1.12,1.12,0,0,1,0-1.59l1.54-1.54a1.12,1.12,0,0,1,1.59,0,1.11,1.11,0,0,1,0,1.58"/><path class="cls-2" d="M390.43,157a1.11,1.11,0,0,1-1.58,0l-1.55-1.55a1.11,1.11,0,0,1,0-1.58,1.12,1.12,0,0,1,1.59,0l1.54,1.54a1.12,1.12,0,0,1,0,1.59"/><path class="cls-2" d="M23.1,138.7a1.25,1.25,0,0,1-1.51.93c-.92-.22-2.63-1-3.75-3.89a12.63,12.63,0,0,1-.77-3.5,1.25,1.25,0,0,1,1.14-1.35h.1A1.25,1.25,0,0,1,19.56,132a9.92,9.92,0,0,0,.61,2.8c.73,1.88,1.65,2.28,2,2.37a1.25,1.25,0,0,1,.93,1.5"/><path class="cls-2" d="M19.92,127.49c-.07.32-.14.65-.2,1a1.25,1.25,0,0,1-2.46-.42c.07-.37.14-.75.23-1.12a1.25,1.25,0,0,1,1.21-1,1.36,1.36,0,0,1,.29,0,1.24,1.24,0,0,1,.93,1.5"/><path class="cls-2" d="M70.7,134.49a1.26,1.26,0,0,0-1.61-.73,9.57,9.57,0,0,1-6.77,0,8.42,8.42,0,0,0-.89-10.51,71,71,0,0,0-17-12.53A37.38,37.38,0,0,0,38.09,108a9.84,9.84,0,0,0-2.57-.46,2.21,2.21,0,0,0-1.68.58c-.73.72-.77,2-.11,4.25.07.24.15.5.24.76a8.32,8.32,0,0,0-3.55.07h0a5.33,5.33,0,0,1-2.51,0h0a8.33,8.33,0,0,0-1.92-.23,10.61,10.61,0,0,0-7,3,20.58,20.58,0,0,0-5.07,21.29c1.36,3.49,3.76,5.81,6.77,6.53a9.26,9.26,0,0,0,7.1-1.36l.06,0a8.33,8.33,0,0,0,.66,3,8.6,8.6,0,0,0-7.81,10.8,1.26,1.26,0,0,0,.89.88,8.57,8.57,0,0,0,10.77-7.49,8.66,8.66,0,0,0,2.31.8,1.24,1.24,0,0,0,1.46-1,1.25,1.25,0,0,0-1-1.47,5.93,5.93,0,0,1-4.8-5.72,2.79,2.79,0,0,1,.34.18,9.23,9.23,0,0,0,7.09,1.36,9.72,9.72,0,0,0,6.38-5.61,16.79,16.79,0,0,0,1.48-6.14c1.05,1.21,2.19,2.44,3.42,3.67a8.41,8.41,0,0,0,10.5.89,9.62,9.62,0,0,1,0,6.77,1.25,1.25,0,1,0,2.33.88,12.06,12.06,0,0,0,.6-6.39,46.36,46.36,0,0,0,4.84,3.18,1.25,1.25,0,1,0,1.24-2.17c-1.1-.62-2.17-1.3-3.21-2A12.12,12.12,0,0,0,70,136.1a1.25,1.25,0,0,0,.73-1.61M26.16,151.6a1.27,1.27,0,0,0,1.77,0l1.81-1.81a6.1,6.1,0,0,1-6.86,5.09A6.1,6.1,0,0,1,28,148l-1.81,1.81a1.25,1.25,0,0,0,0,1.77m10.27-32.82A68.1,68.1,0,0,0,43,128.93c.67,6.17-1.82,11.49-5.86,12.45a6.77,6.77,0,0,1-5.2-1,5.18,5.18,0,0,0-5.54,0,6.78,6.78,0,0,1-5.2,1c-2.19-.51-4-2.29-5-5a18.16,18.16,0,0,1,4.41-18.53c2.15-1.94,4.54-2.72,6.73-2.2h0a7.81,7.81,0,0,0,3.66,0h0a6.39,6.39,0,0,1,4.15.48c.38.85.81,1.73,1.28,2.64M59.5,133.37h0l-.21.21a6.55,6.55,0,0,1-4.62,2A5.52,5.52,0,0,1,50.73,134l-.79-.8,1.74-1.74a1.26,1.26,0,0,0-.88-2.14,1.29,1.29,0,0,0-.89.37l-1.67,1.68q-2.09-2.33-4-4.83l1.88-1.88a1.24,1.24,0,0,0,0-1.76,1.21,1.21,0,0,0-.88-.37,1.25,1.25,0,0,0-.89.37l-1.59,1.59c-1.24-1.78-2.37-3.59-3.38-5.4l1.94-2a1.25,1.25,0,0,0-1.76-1.77l-1.41,1.4c-.35-.71-.66-1.37-.92-2a.59.59,0,0,0,0-.08,17.5,17.5,0,0,1-1.46-4.61c1.11.11,4,.93,8.37,3.32.76.41,1.52.84,2.27,1.3l-1.49,1.49A1.25,1.25,0,0,0,46.68,118l1.9-1.9c1.74,1.14,3.45,2.37,5.1,3.68l-1.63,1.64a1.25,1.25,0,0,0,1.77,1.76l1.81-1.81c1.4,1.2,2.76,2.44,4,3.72a6,6,0,0,1-.17,8.33"/><path class="cls-2" d="M129.41,30.34a16.32,16.32,0,0,0-7.17-4.17l0,0a27.34,27.34,0,0,0-4.73-.71v-7.2a1.24,1.24,0,0,0-2.47,0v7.19a20.28,20.28,0,0,0-4.6.74,16.37,16.37,0,0,0-7.17,4.17c-4.08,4.08-5.72,10.09-4.59,16.92a35.33,35.33,0,0,0,10.18,18.85,39.51,39.51,0,0,0,6.85,5.48,1.21,1.21,0,0,0,1.32,0,39.82,39.82,0,0,0,6.84-5.48A35.42,35.42,0,0,0,134,47.26c1.12-6.83-.51-12.84-4.6-16.92m2.16,16.52a32.85,32.85,0,0,1-9.5,17.5,36.62,36.62,0,0,1-5.75,4.72,37.26,37.26,0,0,1-5.76-4.72,32.92,32.92,0,0,1-9.5-17.5c-1-6,.4-11.27,3.91-14.78a13.9,13.9,0,0,1,6.11-3.53A17.56,17.56,0,0,1,115,27.9v5.33l-8,8A1.24,1.24,0,0,0,108.72,43L115,36.72V46l-3.83,3.82a1.24,1.24,0,0,0,1.75,1.75L115,49.49v8.76a1.24,1.24,0,1,0,2.47,0V49.49l2.08,2.08a1.24,1.24,0,0,0,1.75-1.75L117.46,46V36.72L123.73,43a1.24,1.24,0,0,0,1.75-1.75l-8-8V27.92a24.06,24.06,0,0,1,4.12.63,14.08,14.08,0,0,1,6.09,3.53c3.5,3.51,4.89,8.76,3.9,14.78"/><path class="cls-2" d="M113.79,74.54a1.23,1.23,0,0,1-1.71.33c-.71-.47-1.41-1-2.1-1.5a1.24,1.24,0,0,1,1.5-2c.65.5,1.31,1,2,1.42a1.23,1.23,0,0,1,.33,1.72"/><path class="cls-2" d="M107.24,69.43a1.24,1.24,0,0,1-1.75,0,42,42,0,0,1-10.1-15.86A1.24,1.24,0,0,1,96.16,52a1.39,1.39,0,0,1,.4-.06,1.24,1.24,0,0,1,1.17.83,39.44,39.44,0,0,0,9.51,14.91,1.24,1.24,0,0,1,0,1.75"/><path class="cls-2" d="M44.88,23.65a3.14,3.14,0,1,0-3.14,3.13,3.15,3.15,0,0,0,3.14-3.13m-2.27,0a.87.87,0,1,1-.87-.87.87.87,0,0,1,.87.87"/><path class="cls-2" d="M55.44,51.26a33.54,33.54,0,0,0-.22-3.75,1.56,1.56,0,0,0-.79-1.18l-8.89-5V37.59H47a1.14,1.14,0,0,0,1.14-1.13v-13a6.43,6.43,0,0,0-12.85,0v13a1.13,1.13,0,0,0,1.13,1.13h1.49v3.88l-8.87,4.85a1.58,1.58,0,0,0-.81,1.2,33.22,33.22,0,0,0-.21,3.74c0,7.81,2.74,15,7.52,19.82h0A18.55,18.55,0,0,0,41.1,75a1.58,1.58,0,0,0,1.28,0,20.63,20.63,0,0,0,9.52-9.24,30.13,30.13,0,0,0,3.54-14.45M37.58,35.32V23.43a4.16,4.16,0,0,1,8.32,0V35.32Zm2.63,2.27h3.06v2.53H42.9l-.24,0H40.21Zm13,13.67a28,28,0,0,1-3.26,13.37,18.46,18.46,0,0,1-8.17,8.11,16.32,16.32,0,0,1-4.56-3.26h0c-4.36-4.36-6.86-11-6.86-18.22a29.5,29.5,0,0,1,.16-3.12l9.14-5h0l1.5-.82c.35,0,1.16,0,1.53,0L53,48.13c.1,1,.16,2.08.16,3.13"/><path class="cls-2" d="M42.86,69.07a1.72,1.72,0,0,1-.07.21.75.75,0,0,1-.1.2,1.15,1.15,0,0,1-.14.17l-.17.14-.2.11A.83.83,0,0,1,42,70a1.09,1.09,0,0,1-.44,0,.79.79,0,0,1-.22-.06l-.19-.11L41,69.65a1.22,1.22,0,0,1-.15-.17,1.24,1.24,0,0,1-.1-.2,1.54,1.54,0,0,1-.09-.43,1.1,1.1,0,0,1,.34-.8l.17-.14.19-.11a.79.79,0,0,1,.22-.06.78.78,0,0,1,.22,0,.82.82,0,0,1,.22,0,.83.83,0,0,1,.21.06l.2.11.17.14a1.15,1.15,0,0,1,.14.17.75.75,0,0,1,.1.2,1.29,1.29,0,0,1,.07.21,1.22,1.22,0,0,1,0,.44"/><path class="cls-2" d="M40.23,48l-5.37,2.94c0,.11,0,.23,0,.34,0,5.57,1.77,10.78,4.86,14.29a1.14,1.14,0,0,1-.1,1.6A1.15,1.15,0,0,1,38,67c-3.44-3.91-5.41-9.67-5.41-15.78,0-.35,0-.71,0-1.07a1.12,1.12,0,0,1,.59-.95L39.14,46a1.17,1.17,0,0,1,.54-.14A1.13,1.13,0,0,1,40.23,48"/><path class="cls-2" d="M62.91,199.73a16,16,0,0,0-7-4.07h0a25.21,25.21,0,0,0-5.68-.73h-.25a19.84,19.84,0,0,0-5.52.75,15.84,15.84,0,0,0-7,4.06c-4,4-5.58,9.83-4.48,16.46a34.27,34.27,0,0,0,9.85,18.25,38.27,38.27,0,0,0,6.63,5.3,1.38,1.38,0,0,0,1.49,0,38.59,38.59,0,0,0,6.62-5.3,34.36,34.36,0,0,0,9.86-18.25c1.09-6.63-.5-12.48-4.48-16.46m1.72,16a31.49,31.49,0,0,1-9.08,16.72,35.25,35.25,0,0,1-5.39,4.43,35.25,35.25,0,0,1-5.39-4.43,31.47,31.47,0,0,1-9.07-16.72c-.94-5.72.37-10.71,3.7-14a13.14,13.14,0,0,1,5.78-3.35,17.06,17.06,0,0,1,5-.64,22.8,22.8,0,0,1,5,.64,13.23,13.23,0,0,1,5.76,3.35c3.32,3.32,4.64,8.31,3.7,14"/><path class="cls-2" d="M46.71,203.7a7.77,7.77,0,0,0-3.38,1.94A8.78,8.78,0,0,0,41,211.85a1.4,1.4,0,0,1-2.8-.08,11.64,11.64,0,0,1,3.17-8.11A10.53,10.53,0,0,1,45.94,201a1.74,1.74,0,0,1,.39,0,1.4,1.4,0,0,1,.38,2.74"/><path class="cls-2" d="M41.38,220.39a1.4,1.4,0,0,1-1.8-.82c-.12-.31-.23-.63-.33-.93s-.26-.83-.36-1.23a1.4,1.4,0,0,1,1-1.72,1.64,1.64,0,0,1,.37-.05,1.41,1.41,0,0,1,1.35,1c.09.36.2.72.32,1.09s.19.55.29.82a1.4,1.4,0,0,1-.82,1.8"/><path class="cls-2" d="M33.25,230.14a9.26,9.26,0,0,0-4.06-2.36l-.06,0a14.49,14.49,0,0,0-3.21-.41h-.14a11.29,11.29,0,0,0-3.17.43,9.23,9.23,0,0,0-4.05,2.36c-2.31,2.3-3.23,5.66-2.61,9.46a19.26,19.26,0,0,0,5.51,10.22,21.65,21.65,0,0,0,3.7,3,1.43,1.43,0,0,0,1.49,0,22,22,0,0,0,3.69-3,19.19,19.19,0,0,0,5.51-10.22c.63-3.8-.3-7.16-2.6-9.46m-.16,9a16.32,16.32,0,0,1-4.73,8.69,18.48,18.48,0,0,1-2.46,2.07,19.13,19.13,0,0,1-2.46-2.07,16.45,16.45,0,0,1-4.73-8.69c-.47-2.89.18-5.38,1.82-7a6.62,6.62,0,0,1,2.85-1.65,8.86,8.86,0,0,1,2.51-.32,11.68,11.68,0,0,1,2.56.33,6.5,6.5,0,0,1,2.82,1.64c1.65,1.65,2.29,4.14,1.82,7"/><path class="cls-2" d="M24.9,235.75a1.09,1.09,0,0,0-.48.25,2.94,2.94,0,0,0-.28,2.26,1.33,1.33,0,1,1-2.63.43c-.19-1.14-.3-3.24,1-4.57a3.64,3.64,0,0,1,1.63-.92,1.13,1.13,0,0,1,.36-.06,1.33,1.33,0,0,1,.37,2.61"/><path class="cls-2" d="M401.69,224.6v-5.72H406a1.28,1.28,0,0,0,1.28-1.27v-6.42a1.28,1.28,0,0,0-1.28-1.28h-4.33v-4.18a1.28,1.28,0,0,0-1.28-1.28h-8.86a1.28,1.28,0,0,0-1.28,1.28v4.18H384v-4.18a1.27,1.27,0,0,0-1.27-1.28h-8.86a1.28,1.28,0,0,0-1.28,1.28v4.18h-6.31v-4.18a1.28,1.28,0,0,0-1.28-1.28H356.1a1.27,1.27,0,0,0-1.27,1.28v4.18H350.5a1.28,1.28,0,0,0-1.28,1.28v6.42a1.27,1.27,0,0,0,1.28,1.27h4.33v5.72H350.5a1.27,1.27,0,0,0-1.28,1.27v6.42a1.28,1.28,0,0,0,1.28,1.28h4.33v4.26a1.24,1.24,0,0,0,.37.82l4.43,4.44a1.29,1.29,0,0,0,1.81,0l4.43-4.44a1.24,1.24,0,0,0,.37-.82v-4.26h6.31v4.26a1.29,1.29,0,0,0,.37.82l4.44,4.44a1.29,1.29,0,0,0,1.8,0l4.43-4.44a1.24,1.24,0,0,0,.37-.81v-4.27h6.31s0,4.24,0,4.27a1.24,1.24,0,0,0,.37.81l4.43,4.44a1.29,1.29,0,0,0,1.8,0l4.43-4.44a1.22,1.22,0,0,0,.37-.8s0-4.28,0-4.28H406a1.29,1.29,0,0,0,1.28-1.28v-6.42A1.28,1.28,0,0,0,406,224.6Zm0,2.55h3.05V231h-3.05Zm-46.86-10.82h-3.06v-3.87h3.06Zm0,14.68h-3.06v-3.86h3.06Zm8.86,1.28v4.94l-3.16,3.15-3.15-3.15v-4.94h0v-6.41h0v-8.26h0v-6.41h0V207h6.31v4.19h0v6.41h0v8.26h0v6.42Zm8.86-16h-6.31v-3.87h6.31Zm0,8.27h-6.31v-5.72h6.31Zm0,6.41h-6.31v-3.86h6.31Zm8.86,6.21-3.15,3.16-3.16-3.16V207h6.31Zm8.86-20.89H384v-3.87h6.31Zm0,8.27H384v-5.72h6.31Zm0,6.41H384v-3.86h6.31Zm8.87,6.21L396,240.38l-3.15-3.16V207h6.31v4.18h0v6.41h0v8.26h0v6.41h0Zm2.55-24.76h3.05v3.87h-3.05Z"/><path class="cls-2" d="M360.53,230.36a1.28,1.28,0,1,0-1.27-1.28,1.28,1.28,0,0,0,1.27,1.28"/><path class="cls-2" d="M378.26,230.36a1.28,1.28,0,1,0-1.28-1.28,1.28,1.28,0,0,0,1.28,1.28"/><path class="cls-2" d="M396,230.36a1.28,1.28,0,1,0-1.27-1.28,1.28,1.28,0,0,0,1.27,1.28"/><path class="cls-2" d="M360.53,215.67a1.28,1.28,0,1,0-1.27-1.27,1.27,1.27,0,0,0,1.27,1.27"/><path class="cls-2" d="M378.26,215.67A1.28,1.28,0,1,0,377,214.4a1.27,1.27,0,0,0,1.28,1.27"/><path class="cls-2" d="M396,215.67a1.28,1.28,0,1,0-1.27-1.27,1.27,1.27,0,0,0,1.27,1.27"/><path class="cls-2" d="M288.11,63.62V50.1a3,3,0,0,0-1.19-2.43A3,3,0,0,0,285,47a3.35,3.35,0,0,0-.76.09l-3.78,1V41.65h.91a1.39,1.39,0,0,0,1.39-1.39V22.74A5.74,5.74,0,0,0,277.06,17h-.82a5.74,5.74,0,0,0-5.74,5.73V40.26a1.39,1.39,0,0,0,1.39,1.39h.91v6.41l-3.79-1a3.07,3.07,0,0,0-3.82,3V63.62A6.21,6.21,0,0,0,267,68l5.21,5.21a6.24,6.24,0,0,0,8.83,0L286.28,68a6.21,6.21,0,0,0,1.83-4.42M280,38.88h-6.74V22.74a3,3,0,0,1,3-3h.82a3,3,0,0,1,3,3Zm5.31,11.22h0V63.62a3.44,3.44,0,0,1-1,2.45l-5.22,5.22a3.45,3.45,0,0,1-4.9,0L269,66.07a3.41,3.41,0,0,1-1-2.45V50.1a.29.29,0,0,1,.12-.24.33.33,0,0,1,.26-.06l4.46,1.13v2.85a1.39,1.39,0,1,0,2.77,0V41.65h2.16V53.78a1.39,1.39,0,1,0,2.77,0V50.93L285,49.8a.29.29,0,0,1,.26.06.29.29,0,0,1,.11.24"/><path class="cls-2" d="M317.73,55.65A6.24,6.24,0,0,0,313,49.59l-2.89-.72V41.65H311a1.39,1.39,0,0,0,1.39-1.39V22.74A5.74,5.74,0,0,0,306.68,17h-.82a5.74,5.74,0,0,0-5.74,5.73V40.26a1.39,1.39,0,0,0,1.39,1.39h.91v7.22l-2.89.72a6.24,6.24,0,0,0-4.72,6.06v18a1.39,1.39,0,1,0,2.77,0V58.39h3.94V73.62a1.39,1.39,0,0,0,2.78,0V58.39h3.94V73.62a1.39,1.39,0,1,0,2.77,0V58.39H315V73.62a1.39,1.39,0,1,0,2.77,0Zm-8.09-32.91h0V38.88H302.9V22.74a3,3,0,0,1,3-3h.82a3,3,0,0,1,3,3M315,55.62H297.58a3.47,3.47,0,0,1,2.62-3.34l3.56-.89h0A1.38,1.38,0,0,0,305.19,50V41.65h2.16V50a1.38,1.38,0,0,0,1.38,1.38h0l3.55.89A3.46,3.46,0,0,1,315,55.62"/><path class="cls-2" d="M296.65,37.59a1.38,1.38,0,0,1-1.38-1.39V29.44a1.39,1.39,0,1,1,2.77,0V36.2a1.39,1.39,0,0,1-1.39,1.39"/><path class="cls-2" d="M274.26,66.46a1.39,1.39,0,0,1-2,0l-1.85-1.86a1.39,1.39,0,0,1-.41-1V59.69a1.39,1.39,0,0,1,2.78,0v3.36l1.44,1.45a1.37,1.37,0,0,1,0,2"/><path class="cls-2" d="M277.63,69.82a1.39,1.39,0,0,1-2,0l-.61-.6a1.39,1.39,0,0,1,0-2,1.35,1.35,0,0,1,1-.41,1.34,1.34,0,0,1,1,.41l.61.6a1.39,1.39,0,0,1,0,2"/><path class="cls-2" d="M231.23,53a3.86,3.86,0,0,1-2.14,2,4,4,0,0,1-1.4.25l.72,1.88a3.87,3.87,0,0,1-.09,3,3.86,3.86,0,0,1-4,2.23,3.93,3.93,0,0,1-.31,1.15,3.85,3.85,0,0,1-7.11-.21l-.53-1.4a3.94,3.94,0,0,1-1.21.74,3.84,3.84,0,0,1-2.94-.09,3.79,3.79,0,0,1-2-2.14L208.91,57a1.22,1.22,0,0,1,.71-1.58,1.09,1.09,0,0,1,.43-.08,1.23,1.23,0,0,1,1.15.79l1.28,3.37a1.4,1.4,0,0,0,.73.78,1.42,1.42,0,0,0,1.07,0,1.4,1.4,0,0,0,.81-1.8l-1.61-4.24-1.8-4.75a1.22,1.22,0,0,1,.71-1.58,1.31,1.31,0,0,1,.43-.08,1.24,1.24,0,0,1,1.15.79l1.8,4.75,3.41,9a1.39,1.39,0,0,0,2.58.07,1.37,1.37,0,0,0,0-1.07l-.57-1.52-3.42-9a1.23,1.23,0,0,1,.71-1.58,1.36,1.36,0,0,1,.44-.08,1.22,1.22,0,0,1,1.14.79l3.42,9a1.4,1.4,0,0,0,2.58.08,1.42,1.42,0,0,0,0-1.07l-2-5.23-3.41-9A1.22,1.22,0,0,1,223,42.9l3.41,9a1.41,1.41,0,0,0,1.8.81A1.45,1.45,0,0,0,229,52a1.42,1.42,0,0,0,0-1.07l-3.8-10,0-.11a.9.9,0,0,1-.06-.22L219,19.85l-20,7.6a1.22,1.22,0,1,1-.87-2.29l21.24-8.07a1.11,1.11,0,0,1,.44-.08,1.16,1.16,0,0,1,.54.13,1.21,1.21,0,0,1,.63.75l6.56,22.18,3.78,10a3.87,3.87,0,0,1-.09,2.95"/><path class="cls-2" d="M208.76,29.37a1.25,1.25,0,0,0-.9-.4H185.14a1.23,1.23,0,0,0-1.23,1.23v6.24l-8,8a4,4,0,0,0,0,5.71,4,4,0,0,0,5.13.48h0l2.86-2V66.15a3.85,3.85,0,0,0,5.24,3.59v1.5A3.85,3.85,0,0,0,195.72,74a3.81,3.81,0,0,0,.7-1,3.84,3.84,0,0,0,1.82.46,3.86,3.86,0,0,0,3.85-3.85v-2a3.79,3.79,0,0,0,1.4.26A3.82,3.82,0,0,0,207.33,64V53.36l1.75-23.07a1.24,1.24,0,0,0-.32-.92m-22.4,2.05h20.18L204.91,53a.91.91,0,0,0,0,.23V64a1.4,1.4,0,0,1-1.39,1.39,1.4,1.4,0,0,1-1.4-1.39V54.4a1.23,1.23,0,1,0-2.45,0V69.61a1.43,1.43,0,0,1-.41,1,1.39,1.39,0,0,1-2.38-1V60a1.23,1.23,0,1,0-2.45,0V71.24a1.4,1.4,0,0,1-2.8,0V56.54a1.23,1.23,0,0,0-2.45,0v9.61a1.38,1.38,0,0,1-1.39,1.4,1.4,1.4,0,0,1-1.4-1.4V46.34a.66.66,0,0,0,0-.15,1.24,1.24,0,0,0-.21-.54,1.2,1.2,0,0,0-1-.53,1.24,1.24,0,0,0-.69.21l-4.78,3.28h0a1.61,1.61,0,0,1-2-.19,1.59,1.59,0,0,1,0-2.25L186,37.81a1.25,1.25,0,0,0,.36-.8V37h0Z"/><path class="cls-2" d="M407.18,64.47a1.36,1.36,0,0,0-1.79-.71,8.14,8.14,0,0,1-5.39.37,8.08,8.08,0,0,0,.93-3.82A7.27,7.27,0,0,0,398.59,55l-1.29-1.14h4.24a1.36,1.36,0,0,0,1.36-1.36V41.3h0V19a1.36,1.36,0,0,0-1.36-1.36h-51A1.36,1.36,0,0,0,349.22,19V41.29h0V52.46a1.36,1.36,0,0,0,1.36,1.36h3.28a12.22,12.22,0,0,0-.63,4.93,7.25,7.25,0,0,0,2.94,5.47,6.86,6.86,0,0,0,4.68,1.11,6.43,6.43,0,0,0-.14,1,6.27,6.27,0,0,0-1.43-.16,6.45,6.45,0,0,0-2.62.55A6.57,6.57,0,0,0,352.77,72a1.36,1.36,0,0,0,.54,1.25,6.57,6.57,0,0,0,9.42-1.76,6.44,6.44,0,0,0,1,.74,1.36,1.36,0,0,0,1.46-2.3,3.76,3.76,0,0,1-1.71-3.57,6.81,6.81,0,0,0,4.21,2.36,7.49,7.49,0,0,0,6.56-2.7,14.27,14.27,0,0,0,3.4-7.62,15.52,15.52,0,0,0,.1-3.53,64.25,64.25,0,0,0,10.13,11.88,7.26,7.26,0,0,0,5.54,1.85,8,8,0,0,0,3.72-1.28,8.1,8.1,0,0,1,.12,5.41,1.36,1.36,0,0,0,2.59.85,10.81,10.81,0,0,0,.4-5.1,38.81,38.81,0,0,0,3.84,2.24,1.36,1.36,0,0,0,1.24-2.43c-.72-.36-1.42-.75-2.11-1.17a10.64,10.64,0,0,0,3.29-.84,1.36,1.36,0,0,0,.71-1.79m-46.35,4.72a3.84,3.84,0,0,1-2.09,2.27,3.88,3.88,0,0,1-3.08,0,3.84,3.84,0,0,1,5.17-2.27m-4.06-15.37h18.05a12.68,12.68,0,0,1,.09,4.18,11.45,11.45,0,0,1-2.71,6.16A4.86,4.86,0,0,1,368,66a4.41,4.41,0,0,1-2.84-1.85,4.18,4.18,0,0,0-4.12-1.61,4.39,4.39,0,0,1-3.34-.57c-2-1.41-2.39-4.75-1-8.16m43.41-2.72H351.94V41.29h0v-21h48.24v21h0Zm-2,9.23a5.62,5.62,0,0,1-5,5.54,4.52,4.52,0,0,1-3.48-1.15l-.53-.49,1.27-1.39a1.35,1.35,0,0,0-.09-1.92,1.33,1.33,0,0,0-.91-.36,1.35,1.35,0,0,0-1,.45l-1.2,1.32c-1.14-1.17-2.24-2.4-3.28-3.66l1.4-1.53a1.37,1.37,0,0,0-.08-1.93,1.34,1.34,0,0,0-.92-.35,1.38,1.38,0,0,0-1,.44l-1.1,1.21c-.68-.89-1.32-1.79-1.92-2.69h9.54a1.36,1.36,0,0,0,2.12,1.7l1.34-1.47c1.19.94,2.35,1.92,3.45,2.92a4.53,4.53,0,0,1,1.46,3.36"/><path class="cls-2" d="M358.42,48.35a1.48,1.48,0,1,0-1.48-1.48,1.48,1.48,0,0,0,1.48,1.48"/><path class="cls-2" d="M393.54,48.35a1.48,1.48,0,1,0-1.48-1.48,1.48,1.48,0,0,0,1.48,1.48"/><path class="cls-2" d="M358.42,37.18a1.48,1.48,0,1,0-1.48-1.48,1.48,1.48,0,0,0,1.48,1.48"/><path class="cls-2" d="M393.54,37.18a1.48,1.48,0,1,0-1.48-1.48,1.48,1.48,0,0,0,1.48,1.48"/><path class="cls-2" d="M358.42,26a1.48,1.48,0,1,0-1.48-1.47A1.47,1.47,0,0,0,358.42,26"/><path class="cls-2" d="M393.54,26a1.48,1.48,0,1,0-1.48-1.47A1.47,1.47,0,0,0,393.54,26"/><path class="cls-2" d="M396.53,42.65H355.6a1.36,1.36,0,0,1,0-2.72h40.93a1.36,1.36,0,1,1,0,2.72"/><path class="cls-2" d="M396.53,31.48H355.6a1.36,1.36,0,0,1,0-2.72h40.93a1.36,1.36,0,1,1,0,2.72"/><path class="cls-2" d="M304.42,139.73a2.67,2.67,0,1,0,0,3.77,2.65,2.65,0,0,0,0-3.77M303,142.1a.68.68,0,0,1-1,0,.69.69,0,1,1,1,0"/><path class="cls-2" d="M285,149.48a1.23,1.23,0,0,1-1.72.27l-1.2-.89a1.22,1.22,0,0,1-.25-1.72,1.23,1.23,0,0,1,1-.49,1.25,1.25,0,0,1,.73.24l1.18.87a1.23,1.23,0,0,1,.27,1.72"/><path class="cls-2" d="M280.55,146.16a1.24,1.24,0,0,1-1.73.2,124.91,124.91,0,0,1-10.68-9.6,1.24,1.24,0,0,1,.88-2.1,1.19,1.19,0,0,1,.87.37,122.91,122.91,0,0,0,10.47,9.4,1.23,1.23,0,0,1,.19,1.73"/><path class="cls-2" d="M296.59,109a1.23,1.23,0,0,1-1.67-.48c-.27-.49-.54-1-.79-1.49a1.22,1.22,0,0,1,.54-1.65,1.25,1.25,0,0,1,.56-.14,1.24,1.24,0,0,1,1.1.68c.23.47.49.94.74,1.4a1.23,1.23,0,0,1-.48,1.68"/><path class="cls-2" d="M308.88,122.48a1.23,1.23,0,0,1-1.73.22A46.25,46.25,0,0,1,297,111.92a1.23,1.23,0,0,1,2-1.38,43.65,43.65,0,0,0,9.58,10.21,1.25,1.25,0,0,1,.22,1.73"/><path class="cls-2" d="M322.83,145a24.47,24.47,0,0,0-13.32-7.18s-.09-.17-.13-.23-.52-.76-.56-.82-.39-.48-.66-.75l-.23-.22-.67-8.61a3.07,3.07,0,0,0-1.21-2.21,49,49,0,0,1-15-18.69,3.38,3.38,0,0,0-2.42-2,3.17,3.17,0,0,0-.53,0,3.54,3.54,0,0,0-2.46,1.1,3,3,0,0,0-.78,2.84,51.79,51.79,0,0,0,10.84,20.78,15.74,15.74,0,0,0-6.51,6.67,102.31,102.31,0,0,1-18.53-13.21,3.35,3.35,0,0,0-2.22-.85,3.2,3.2,0,0,0-.92.13,3.34,3.34,0,0,0-1.63,5.38,117.53,117.53,0,0,0,20.28,18.73,3,3,0,0,0,1.57.57l9,.7,13.38,13.39a1.23,1.23,0,0,0,2.1-.67,24.6,24.6,0,0,0-.92-11.34l0,.05,10.77-1.42a1.23,1.23,0,0,0,.74-2.07m-33-6.42,5.42-.16a8.09,8.09,0,0,0-.16,6l-7.18-.56a.6.6,0,0,1-.32-.12,115.13,115.13,0,0,1-19.84-18.33.85.85,0,0,1-.18-.82.9.9,0,0,1,.6-.59.87.87,0,0,1,.82.19,104.92,104.92,0,0,0,20.21,14.19,1.25,1.25,0,0,0,.61.15h0m6.62-7.25-.14,4.59-4.59.14a13.73,13.73,0,0,1,4.73-4.73m8.87,2.87a7.94,7.94,0,0,0-6.51.41l.15-5.05a1.3,1.3,0,0,0,0-.55l0-.07a1.12,1.12,0,0,0-.24-.37,49.35,49.35,0,0,1-11.41-21,.53.53,0,0,1,.14-.49,1,1,0,0,1,.8-.37,1,1,0,0,1,.62.63,51.52,51.52,0,0,0,15.75,19.62.61.61,0,0,1,.24.44ZM310,156.85l-11.37-11.36,0,0a5.5,5.5,0,0,1-.2-7.5.76.76,0,0,0,.09-.09l.13-.14a5.48,5.48,0,0,1,8.68,6.52,1.26,1.26,0,0,0,0,1.19,21.9,21.9,0,0,1,2.69,11.4m9.16-11.9-8.77,1.15v0c-.19-.44-.4-.88-.63-1.31a7.91,7.91,0,0,0,.59-4.36v0a22.05,22.05,0,0,1,8.79,4.44"/><path class="cls-2" d="M233.85,122h-15.6a1.27,1.27,0,0,1-1.26-1.27,9,9,0,0,0-17.91,0,1.26,1.26,0,0,1-1.26,1.27H182.23a1.27,1.27,0,1,1,0-2.53h14.4a11.48,11.48,0,0,1,22.82,0h14.4a1.27,1.27,0,1,1,0,2.53"/><path class="cls-2" d="M208.26,119.74l-1.07,1.07a1.26,1.26,0,0,1-1.78-1.79l1.07-1.07a1.26,1.26,0,0,1,1.78,0,1.26,1.26,0,0,1,0,1.79"/><path class="cls-2" d="M205.39,127.33l-1.07,1.07a1.26,1.26,0,0,1-1.78-1.79l1.06-1.07a1.27,1.27,0,0,1,1.79,0,1.27,1.27,0,0,1,0,1.79"/><path class="cls-2" d="M214.09,126.51a1.26,1.26,0,0,1-1.79,0l-1.07-1.07a1.26,1.26,0,0,1,1.79-1.78l1.07,1.07a1.26,1.26,0,0,1,0,1.78"/><path class="cls-2" d="M237.72,139.09h0l-3.27-2.28a3.17,3.17,0,0,0-1.8-.57,3.43,3.43,0,0,0-.56,0,3.16,3.16,0,0,0-1.81,1l-7-4.84a6.45,6.45,0,0,0-4.86-1.08l-11.78,2.1a4.28,4.28,0,0,0-2.78,1.78,4.23,4.23,0,0,0-.71,1.68L196.1,132a4,4,0,0,0-2.31-.73,3.51,3.51,0,0,0-.72.07,4.05,4.05,0,0,0-1.61,7.31l14,9.77a3.82,3.82,0,0,0,2.86.63l11.38-2,2.54,1.77a3.16,3.16,0,0,0,1,4.08l3.27,2.29h0a3.15,3.15,0,0,0,4.4-.79l7.56-10.89a3.16,3.16,0,0,0-.75-4.37m-8.94.24-5.11,7.36-2.94-2.06a1.29,1.29,0,0,0-.95-.21l-11.9,2.12-.23,0a1.29,1.29,0,0,1-.73-.23l-14-9.78a1.52,1.52,0,1,1,1.74-2.5l10.25,7.15,0,0a4.36,4.36,0,0,0,3.21.7l7.43-1.33a1.26,1.26,0,1,0-.44-2.49l-7.44,1.33a1.82,1.82,0,0,1-1.33-.3h0a1.76,1.76,0,0,1-.71-1.13,1.74,1.74,0,0,1,.29-1.33,1.72,1.72,0,0,1,1.15-.74l11.78-2.1a4,4,0,0,1,3,.66ZM236.4,142l-7.57,10.89a.63.63,0,0,1-.88.16h0l-3.28-2.29a.64.64,0,0,1-.15-.88l.5-.72h0L232.08,139a.62.62,0,0,1,.41-.26.6.6,0,0,1,.47.1l3.28,2.29a.63.63,0,0,1,.16.88"/><path class="cls-2" d="M143.13,110l-.88.89a1.24,1.24,0,1,1-1.76-1.76l.88-.89a1.24,1.24,0,1,1,1.76,1.76"/><path class="cls-2" d="M136,112.66l-.88.89a1.25,1.25,0,1,1-1.77-1.76l.89-.89a1.24,1.24,0,0,1,1.76,1.76"/><path class="cls-2" d="M134.21,106.48a1.26,1.26,0,0,1-1.76,0l-.89-.89a1.26,1.26,0,0,1,0-1.76,1.24,1.24,0,0,1,1.77,0l.88.88a1.25,1.25,0,0,1,0,1.77"/><path class="cls-2" d="M148.58,127.33l-9.39-9.39a1.21,1.21,0,0,0-.82-.36h-7.91v-2.93a1.24,1.24,0,0,0-.37-.89l-2.61-2.6a1.22,1.22,0,0,0-.88-.37h-2.82a1.2,1.2,0,0,0-.81.36L99.36,134.77a5.88,5.88,0,0,0,0,8.31l16.74,16.74a5.87,5.87,0,0,0,8.3,0l1.27-1.28h0l21.62-21.62h0l1.27-1.27a5.88,5.88,0,0,0,0-8.31m-47.06,8.81L123,157.66l-.39.4a3.4,3.4,0,0,1-4.78,0l-16.74-16.75a3.37,3.37,0,0,1,0-4.77Zm45.3-2.27-.4.4-11.78-11.78a1.24,1.24,0,0,0-1.76,1.76L144.66,136,124.8,155.9l-21.52-21.52,21.09-21.1h1.72l1.87,1.88v3.66a1.25,1.25,0,0,0,1.25,1.25h8.58l9,9a3.37,3.37,0,0,1,0,4.77"/><path class="cls-2" d="M135.1,135.22a5.18,5.18,0,0,0-.2-1.53,4.42,4.42,0,0,0-1.11-1.91,4.69,4.69,0,0,0-3.38-1.31,6.46,6.46,0,0,0-2,.34,5.23,5.23,0,0,0-1-5.42,4.35,4.35,0,0,0-1.91-1.12h0a6.56,6.56,0,0,0-1.45-.19h0a5.38,5.38,0,0,0-1.47.2,4.33,4.33,0,0,0-1.91,1.12,5.21,5.21,0,0,0-1,5.42,6.48,6.48,0,0,0-2-.34,4.68,4.68,0,0,0-3.37,1.31,4.33,4.33,0,0,0-1.11,1.91,5.18,5.18,0,0,0-.2,1.53,6.12,6.12,0,0,0,.18,1.45l0,.05a4.33,4.33,0,0,0,1.11,1.91,5.23,5.23,0,0,0,5.42,1,5.25,5.25,0,0,0,1,5.43,4.37,4.37,0,0,0,1.91,1.11,5.42,5.42,0,0,0,1.52.2,6.56,6.56,0,0,0,1.45-.19h0a4.37,4.37,0,0,0,1.91-1.11,5.25,5.25,0,0,0,1-5.43,5.24,5.24,0,0,0,5.42-1,4.42,4.42,0,0,0,1.11-1.91v-.05a6.14,6.14,0,0,0,.19-1.45m-12.47,3.31a3.58,3.58,0,0,0,2.68,0c1.31,1.77,1.56,3.85.5,4.91a2.16,2.16,0,0,1-.93.54,4.2,4.2,0,0,1-.92.11,2.76,2.76,0,0,1-.88-.11,2.13,2.13,0,0,1-1-.54c-1.06-1.06-.81-3.14.5-4.91m2.28-2.38a1.32,1.32,0,0,1-.94.39,1.36,1.36,0,0,1-1-.39,1.34,1.34,0,1,1,1.89-1.89,1.32,1.32,0,0,1,0,1.89m-4.52-.94a3.59,3.59,0,0,0,.26,1.34c-1.77,1.3-3.85,1.55-4.91.49a2.18,2.18,0,0,1-.54-.92,3.83,3.83,0,0,1-.12-.93,3.53,3.53,0,0,1,.11-.88,2.12,2.12,0,0,1,.55-.94c1.06-1.06,3.14-.81,4.91.49a3.6,3.6,0,0,0-.26,1.35m4.92-3.32a3.58,3.58,0,0,0-2.68,0c-1.31-1.77-1.56-3.86-.5-4.92a2.23,2.23,0,0,1,1-.54,2.76,2.76,0,0,1,.88-.11,3.75,3.75,0,0,1,.92.12,2,2,0,0,1,.93.53c1.06,1.06.81,3.15-.5,4.92m7.55,3.3a5.16,5.16,0,0,1-.12.93,2.18,2.18,0,0,1-.54.92c-1.06,1.06-3.14.81-4.91-.49a3.61,3.61,0,0,0,0-2.69c1.77-1.3,3.85-1.55,4.91-.49a2.12,2.12,0,0,1,.55.94,3.53,3.53,0,0,1,.11.88"/><path class="cls-2" d="M315.75,228.8a18.43,18.43,0,0,0-.57-4.15,17,17,0,0,0-5.26-8.84,10,10,0,0,0-6.42-2.57,8.34,8.34,0,0,0-2,.24,8.45,8.45,0,0,0-3.66,2,10.4,10.4,0,0,0-.72.76,50.85,50.85,0,0,1-5.8-5.58c0-.89-.06-1.77-.07-2.66a9.94,9.94,0,0,0,6.41-3.49A11.56,11.56,0,0,0,306,196.6a1.31,1.31,0,0,0-.88-1.63,1.23,1.23,0,0,0-.25-.05H275a1,1,0,0,0-.24.05,1.3,1.3,0,0,0-.88,1.63,12.14,12.14,0,0,0,8.87,8.37,10,10,0,0,0,5.92,3,95.56,95.56,0,0,0,.77,11,46.39,46.39,0,0,1-3.28,6.11c-.28-.17-.57-.33-.86-.47a7.71,7.71,0,0,0-3.33-.76h-.48a8.71,8.71,0,0,0-6.77,4.44,15.74,15.74,0,0,0-2.14,9.24,17.79,17.79,0,0,0,.67,3.8,1.31,1.31,0,0,0,1.05.92,16.51,16.51,0,0,0,3.86.18,15.54,15.54,0,0,0,8.89-3.29,8.69,8.69,0,0,0,3.54-7.28,7.65,7.65,0,0,0-1.23-3.68l0,0a11.88,11.88,0,0,0-1.13-1.38c.68-1.06,1.32-2.14,1.93-3.25A92.84,92.84,0,0,0,293.5,237a8.44,8.44,0,0,0-1.28.91,6.64,6.64,0,0,0-1.89,2.75,7.43,7.43,0,0,0,1.18,6.82,13.27,13.27,0,0,0,6.44,4.76,14.9,14.9,0,0,0,3.17.75,1.33,1.33,0,0,0,1.27-.59,15.6,15.6,0,0,0,1.43-2.93,13.23,13.23,0,0,0,.42-8,7.46,7.46,0,0,0-4.52-5.25,6.51,6.51,0,0,0-2.19-.38,7.3,7.3,0,0,0-1.13.1l-.45.1a92,92,0,0,1-3.87-16.72,1.3,1.3,0,0,0-.09-.68c-.16-1.28-.29-2.57-.4-3.85a52.65,52.65,0,0,0,4.09,3.68,13.07,13.07,0,0,0-.81,2s0,0,0,.06a8.34,8.34,0,0,0-.05,4.18,9.37,9.37,0,0,0,6,6.3,17,17,0,0,0,10.27.46A19.24,19.24,0,0,0,315,230a1.32,1.32,0,0,0,.72-1.2M294,239.87c.14-.12.29-.23.44-.34l.69,1.82-.74,1.92a1.19,1.19,0,0,0,.68,1.53,1.17,1.17,0,0,0,1.33-.35c.2.47.41.93.61,1.39a1.32,1.32,0,0,0,2.4-1.08c-.25-.55-.49-1.11-.73-1.67l.13,0a1.18,1.18,0,0,0,.84-2.21l-2.19-.84c-.2-.52-.4-1-.59-1.57h0a4,4,0,0,1,2,.18,4.9,4.9,0,0,1,2.88,3.49,10.57,10.57,0,0,1-.38,6.39,10.87,10.87,0,0,1-.74,1.67,11.25,11.25,0,0,1-1.76-.49,10.59,10.59,0,0,1-5.17-3.77,4.94,4.94,0,0,1-.87-4.45,4.09,4.09,0,0,1,1.15-1.66m-8.6-2.71a13,13,0,0,1-7.4,2.7,15.26,15.26,0,0,1-2.44,0,15.9,15.9,0,0,1-.35-2.41,13,13,0,0,1,1.75-7.68,6.17,6.17,0,0,1,4.71-3.21,5.08,5.08,0,0,1,2.51.51l.5.26c-.43.61-.88,1.2-1.35,1.78l-3.88.24a1.19,1.19,0,0,0-1.1,1.26,1.18,1.18,0,0,0,1.25,1.1l1.56-.1q-1.25,1.34-2.61,2.58a1.31,1.31,0,0,0,1.77,1.94c1-.88,1.89-1.79,2.78-2.74l.09,1.48a1.18,1.18,0,0,0,2.36-.15l-.25-3.87c.47-.59.93-1.18,1.37-1.79a8.11,8.11,0,0,1,.51.65,5,5,0,0,1,.8,2.41,6.15,6.15,0,0,1-2.58,5.08M290,205.47a7.4,7.4,0,0,1-5.52-2.47s-.1-.11-.12-.12a1.29,1.29,0,0,0-.73-.4,9.53,9.53,0,0,1-6.58-4.94h25.77a9,9,0,0,1-6.11,4.52h0a1.27,1.27,0,0,0-.77.48,7.36,7.36,0,0,1-5.9,2.92M313.08,228a15.24,15.24,0,0,1-2.62.89,14.3,14.3,0,0,1-8.66-.35,6.81,6.81,0,0,1-4.45-4.5,5.7,5.7,0,0,1,0-2.84c.13-.39.27-.77.43-1.13.76.56,1.54,1.09,2.33,1.6l1.05,4.17a1.17,1.17,0,0,0,1.43.86,1.18,1.18,0,0,0,.86-1.43l-.47-1.86c1.25.7,2.54,1.36,3.86,2A1.32,1.32,0,0,0,308,223c-1.25-.56-2.46-1.18-3.64-1.84l1.9-.48a1.18,1.18,0,0,0-.28-2.33.92.92,0,0,0-.29,0l-4.18,1.05c-.77-.5-1.52-1-2.27-1.57a6.25,6.25,0,0,1,.44-.45,5.66,5.66,0,0,1,2.5-1.39,6.84,6.84,0,0,1,6.07,1.79,14.26,14.26,0,0,1,4.41,7.47,16.19,16.19,0,0,1,.45,2.73"/><path class="cls-2" d="M284.53,200.48l-.46.47a1.32,1.32,0,0,1-1.86-1.86l.46-.46a1.32,1.32,0,0,1,.93-.39,1.32,1.32,0,0,1,.93,2.24"/><path class="cls-2" d="M290.76,203.74a1.32,1.32,0,0,1-1.86,0l-.46-.46a1.3,1.3,0,0,1,0-1.86,1.32,1.32,0,0,1,1.85,0l.47.46a1.32,1.32,0,0,1,0,1.86"/><path class="cls-2" d="M297.34,200.48l-.46.47a1.32,1.32,0,0,1-1.86-1.86l.47-.46a1.29,1.29,0,0,1,1.85,0,1.3,1.3,0,0,1,0,1.85"/><path class="cls-2" d="M228.64,224A18.64,18.64,0,1,0,210,242.6,18.66,18.66,0,0,0,228.64,224m-2.52,0A16.12,16.12,0,1,1,210,207.83,16.14,16.14,0,0,1,226.12,224"/><path class="cls-2" d="M186.42,225.22h-2.73a1.27,1.27,0,0,1,0-2.53h2.73a1.27,1.27,0,1,1,0,2.53"/><path class="cls-2" d="M236.31,225.22h-2.73a1.27,1.27,0,1,1,0-2.53h2.73a1.27,1.27,0,0,1,0,2.53"/><path class="cls-2" d="M199.3,245l-1.36,2.37a1.26,1.26,0,0,1-2.19-1.26l1.37-2.37a1.27,1.27,0,0,1,1.09-.63,1.19,1.19,0,0,1,.63.17,1.25,1.25,0,0,1,.46,1.72"/><path class="cls-2" d="M224.25,201.8l-1.37,2.37a1.26,1.26,0,1,1-2.18-1.26l1.36-2.37a1.26,1.26,0,0,1,1.1-.63,1.22,1.22,0,0,1,.63.17,1.26,1.26,0,0,1,.46,1.72"/><path class="cls-2" d="M210,253a1.25,1.25,0,0,1-1.26-1.26v-5.67a1.26,1.26,0,0,1,2.52,0v5.67A1.25,1.25,0,0,1,210,253"/><path class="cls-2" d="M210,203.11a1.26,1.26,0,0,1-1.26-1.27v-5.66a1.26,1.26,0,1,1,2.52,0v5.66a1.26,1.26,0,0,1-1.26,1.27"/><path class="cls-2" d="M192,213.53a1.27,1.27,0,0,1-1.73.46l-4.91-2.83a1.27,1.27,0,0,1,.64-2.36,1.32,1.32,0,0,1,.63.17l4.9,2.84a1.26,1.26,0,0,1,.47,1.72"/><path class="cls-2" d="M235.15,238.47a1.27,1.27,0,0,1-1.73.47l-4.9-2.84a1.26,1.26,0,0,1,.63-2.35,1.22,1.22,0,0,1,.63.17l4.91,2.83a1.26,1.26,0,0,1,.46,1.72"/><path class="cls-2" d="M191.48,236.1l-4.9,2.84a1.27,1.27,0,0,1-1.27-2.19l4.91-2.83a1.22,1.22,0,0,1,.63-.17,1.26,1.26,0,0,1,.63,2.35"/><path class="cls-2" d="M234.69,211.16,229.78,214a1.26,1.26,0,1,1-1.26-2.18l4.9-2.84a1.32,1.32,0,0,1,.63-.17,1.27,1.27,0,0,1,.64,2.36"/><path class="cls-2" d="M198.84,204.63a1.26,1.26,0,0,1-1.72-.46l-1.37-2.37a1.26,1.26,0,0,1,.46-1.72,1.23,1.23,0,0,1,.64-.17,1.25,1.25,0,0,1,1.09.63l1.36,2.37a1.25,1.25,0,0,1-.46,1.72"/><path class="cls-2" d="M223.79,247.83a1.27,1.27,0,0,1-1.73-.46L220.7,245a1.25,1.25,0,0,1,.46-1.72,1.19,1.19,0,0,1,.63-.17,1.27,1.27,0,0,1,1.09.63l1.37,2.37a1.26,1.26,0,0,1-.46,1.72"/><path class="cls-2" d="M206.3,227.29a4.34,4.34,0,0,1-7.88,0,1.27,1.27,0,1,1,2.3-1.06,1.8,1.8,0,0,0,3.28,0,1.27,1.27,0,0,1,1.15-.73,1.4,1.4,0,0,1,.53.11,1.28,1.28,0,0,1,.62,1.68"/><path class="cls-2" d="M221.57,227.29a4.33,4.33,0,0,1-7.87,0,1.28,1.28,0,0,1,.62-1.68,1.4,1.4,0,0,1,.53-.11,1.27,1.27,0,0,1,1.15.73,1.81,1.81,0,0,0,3.28,0,1.26,1.26,0,1,1,2.29,1.06"/><path class="cls-2" d="M214.17,220.82a1.27,1.27,0,0,1-1.56-.87,2.71,2.71,0,0,0-5.22,0,1.26,1.26,0,0,1-2.43-.69,5.24,5.24,0,0,1,10.08,0,1.26,1.26,0,0,1-.87,1.56"/><path class="cls-2" d="M154.91,227.72a3.41,3.41,0,0,0-1-2.45L144.63,216a3.44,3.44,0,0,0-4.89,0l-.8.8-15.82-.09L118,212.34a1.83,1.83,0,0,0-1.19-.44,1.76,1.76,0,0,0-.77.17,1.81,1.81,0,0,0-1,1H114a2.49,2.49,0,0,1-2.49-2.49v-2.47a1.19,1.19,0,0,0-2.38,0v2.47a4.87,4.87,0,0,0,4.87,4.87h1v3.76h-1a8.64,8.64,0,0,1-8.63-8.63v-1.74a1.19,1.19,0,0,0-2.38,0v1.74a11,11,0,0,0,11,11h1v3.76h-1a14.79,14.79,0,0,1-14.77-14.77v-2.71a1.19,1.19,0,0,0-2.38,0v2.71A17.17,17.17,0,0,0,114,227.77h1.09a1.85,1.85,0,0,0,1,1.07,1.81,1.81,0,0,0,2-.28l5-4.26,7,1.47-4.66,4.66a3.44,3.44,0,0,0,0,4.89l9.26,9.26a3.46,3.46,0,0,0,4.89,0l2.35-2.35.24.24a4.27,4.27,0,0,0,3.12,1.25,4.46,4.46,0,0,0,3.1-1.33L151.7,239a4.39,4.39,0,0,0,.08-6.22l-.24-.24,2.35-2.35a3.4,3.4,0,0,0,1-2.44m-33.57-5.15-4,3.42V214.91l4,3.42Zm22.17,18,6.35-6.36.24.24a2,2,0,0,1-.08,2.86l-3.42,3.42a2.12,2.12,0,0,1-1.46.63,1.89,1.89,0,0,1-1.4-.55Zm9-12.83a1,1,0,0,1-.32.76L149,231.67h0l-8,8h0l-3.19,3.19a1.09,1.09,0,0,1-1.53,0L127,233.64a1.09,1.09,0,0,1,0-1.53l1.14-1.14,5.62,5.62a1.19,1.19,0,0,0,1.68-1.68l-5.62-5.62,3.39-3.39a1.2,1.2,0,0,0,0-1.68,1.17,1.17,0,0,0-.61-.32l-.12,0L123.72,222V219.1l15.19.09a1.2,1.2,0,0,0,1.28-.27l1.23-1.23a1.09,1.09,0,0,1,1.53,0l9.26,9.26a1.06,1.06,0,0,1,.32.77"/><path class="cls-2" d="M138.57,239.72a1.2,1.2,0,0,1-1.68,0l-.55-.55a1.19,1.19,0,1,1,1.68-1.68l.55.54a1.21,1.21,0,0,1,0,1.69"/><path class="cls-2" d="M110.3,205.59a1.19,1.19,0,0,1-1.19-1.19v-.66a1.19,1.19,0,0,1,2.38,0v.66a1.19,1.19,0,0,1-1.19,1.19"/><path class="cls-2" d="M98,205.35a1.19,1.19,0,0,1-1.19-1.19v-.66a1.19,1.19,0,0,1,2.38,0v.66A1.19,1.19,0,0,1,98,205.35"/><path class="cls-2" d="M104.16,206.32a1.19,1.19,0,0,1-1.19-1.19v-1a1.19,1.19,0,0,1,2.38,0v1a1.19,1.19,0,0,1-1.19,1.19"/></pattern></defs><title>Artboard 2</title><g class="cls-3"><g class="cls-4"><rect class="cls-5" x="0.5" y="0.5" width="1312" height="592"/><rect class="cls-6" x="0.5" y="0.5" width="1312" height="592"/></g></g></svg>