<svg id="Capa_1" data-name="Capa 1" xmlns="http://www.w3.org/2000/svg" viewBox="0 0 208.18 210.92"><defs><style>.cls-1{fill:#fff;}</style></defs><title>Artboard 3</title><path class="cls-1" d="M5.54,72.28C3.1,73,1.92,75,1.83,77.58c-.27,8-1.47,7.91-1.75,15.85s.53,8,.25,15.93-.49,8-.76,15.9c-.18,5.42-.58,10.91.41,16,1,5.29,3.47,10.22,5.6,15s4.07,10.09,7.23,14.33,8.08,7.06,12.12,10.52,7.63,7.66,12.36,10.15,10.16,3.1,15.36,4.47c5,1.33,10.15,3.4,15.58,3.58,10.75.36,10.7-.34,21.36,1.19,3.12,2.82,7.64,4.85,13.25,7.34,4.31,1.91,9.5,2.06,15.28,2.59,4.72.43,9.71,1,15.42-.14,2.77-.54,3.72-2.43,3.81-5.13,0-.44-3-7.88-6.2-7.25-6.71,1.29-12.23,2.12-17.13,1a35.22,35.22,0,0,1-15.13-7.75c-1.17-10.76-.13-10.77.23-21.58a71.69,71.69,0,0,0-1.41-16.72,57.5,57.5,0,0,0-5.8-15.66,60.79,60.79,0,0,0-9.85-13.43,80,80,0,0,0-13-10.63,123.59,123.59,0,0,0-14.51-8.59c-4.71-2.36-9.91-4.37-15.57-6.63S29,90.56,24.68,86.88C17.27,80.51,11.13,75.1,11.06,75,9.59,72.93,8,71.55,5.54,72.28M35,107.74c4.77,1.91,9.37,3.54,13.44,5.55,4.66,2.29,8.26,5.7,12,8.16,4.37,2.85,8.61,5.18,11.84,8.32a51,51,0,0,1,8.77,11.51c2.39,4.21,3.23,8.85,4.24,13.69.93,4.49,2.13,9.1,2,14.24-.16,4.87,4.63,8.77-.24,8.68-6.8-.14-5.12-3.49-9.76-8.46s-3.58-6-8.23-11-5.67-4-10.32-9c-2.24-2.39-6.14-3.44-8.53-1.2s-2.9,7.41-.67,9.81c4.65,5,5.53,4.14,10.17,9.11s5.62,4.06,10.28,9,9.22,4,8.91,10.83c-.22,4.87-5.44.91-10.31.75-5.29-.17-10.37-2.12-15.21-3.59-5-1.52-9-4.79-13.36-7.5s-9-5.05-12.51-8.81a59,59,0,0,1-8.76-12.64,58.53,58.53,0,0,1-5.89-14.24,59,59,0,0,1-1.63-15.4c.28-8.21,0-8.22.3-16.44S10,100.6,12,92.64c3,2.86,7.59,5.29,11.56,8C27.2,103.2,30.76,106,35,107.74"/><path class="cls-1" d="M206.85,110.5c-.65-7.93-1-7.9-1.68-15.82s.37-8-.27-15.94-2-7.83-2.62-15.76c-.21-2.53-1.65-5.55-4.11-6.17-.64-.16-1.51.68-2.14.73-1.81.14-4.13.71-5.15,2.29a61.64,61.64,0,0,1-11,14c-4.1,3.88-8.74,8.46-14.28,11s-10.54,5-15.13,7.59c-5.35,3-10.53,5.31-14.71,8.49-4.84,3.68-9.77,6.84-13.25,10.88-3.8,4.42-6.51,9.63-8.84,14.6s-2.24,10.84-3.1,16.52c-.81,5.31-2.8,10.78-2.33,16.69.87,10.78,3.94,10.81,2.42,21.51-5.52,5.18,1.7,14,8.85,6.9,10.28-3.17,11-.28,21.67-1.14,5.41-.44,10.29-2.45,15.26-4,5.13-1.61,10.94-1.64,15.48-4.3s8.51-6.66,12.37-10.29a72.42,72.42,0,0,0,9.93-12.44c3-4.39,5.9-8.88,7.83-13.86s2.74-10.21,3.51-15.53c.75-5.16,1.74-10.49,1.31-15.9m-12.94,1a59,59,0,0,1-.39,15.35c-1,5.14-3.48,9.58-5.68,14.2s-3.88,9.63-7.22,13.55-7.81,6.57-12.08,9.52-8.29,6-13.21,7.8-9.89,2-15.16,2.47c-4.86.39-9.16,6.38-9.61,1.53-.64-6.77,3.78-5.67,8.19-10.85s4.44-5.16,8.86-10.34,5.09-4.6,9.5-9.78c2.13-2.5,2.49-7.28,0-9.41-1.25-1.06-3.65-1.21-5.16-1.09s-2,2.21-3.1,3.46c-4.41,5.18-5.81,4-10.22,9.17s-3.89,5.63-8.3,10.81-2,10.68-8.79,11.14c-4.86.33-.63-5.64-1-10.49-.41-5.13-1.29-10.14-.56-14.68.78-4.88,4.46-8.73,6.65-13,2.11-4.14,4.1-8.35,7.6-12.08a73.5,73.5,0,0,1,10.6-9.86c3.65-2.64,8-4.76,12.55-7.27,4-2.19,8-4.85,12.72-7,4.19-1.91,7.67-4.81,11.17-7.49a73.23,73.23,0,0,0,9.43-8.11c2.44,7.85,1.77,7.84,2.25,16.05s.31,8.23,1,16.42"/><path class="cls-1" d="M169.64,70.08c-2-4.59-2.9-6.68-6.28-10.4a162.34,162.34,0,0,1-11.07-13.24c-2.88-4.11-7.49-7.11-12-9.46s-8.53-5.87-13.23-7.7S117,27.59,112,26.75a71,71,0,0,0-29.92,1.07,72.73,72.73,0,0,0-14.21,5,73.49,73.49,0,0,0-12.67,8.07c-4,3-8.76,5.07-12,8.73s-5.29,8.4-7.8,12.67A74.18,74.18,0,0,0,28.89,75.5c-1.13,3.24,0,7.76,3.26,8.89a8.48,8.48,0,0,0,2.41,0c.93,0,1.61-1.37,2.47-1.79,1.49-.73,2-1.8,2.51-3.37,1.66-4.8,5.15-8.77,7.85-12.92A61.49,61.49,0,0,1,57.09,55c3.66-3.44,7.88-5.84,12.24-8.32s8.47-5.15,13.31-6.53A60.2,60.2,0,0,1,97.39,38.2a60.74,60.74,0,0,1,14.8,1.07,62,62,0,0,1,14,5c4.52,2.17,9.12,4.17,13,7.34s8.44,6,11.48,10a58,58,0,0,1,6.91,12.78c1,2.35,2.88,4,5.44,4,.76,0,3.76-2,4.38-3.57s2.92-3.22,2.27-4.75"/><path class="cls-1" d="M9.1,44.4C7.36,47.17,7.41,51.25,10.18,53c1.81,1.14,2.19.54,4,1.68,2.78,1.75,5.51.26,7.25-2.52.87-1.38,1.23-2.2.89-3.68a4.42,4.42,0,0,0-2.2-3.24c-1.81-1.14-1-2.42-2.81-3.56-2.77-1.75-6.46-.05-8.21,2.73"/><path class="cls-1" d="M181.89,42.05c-1.81,1.14-1.29,2-3.1,3.11-1.39.87-1.69,1.86-2,3.34s-1.77,3.31-.9,4.69c1.75,2.77,5.48,2.19,8.25.45,1.81-1.14,2-.89,3.78-2,2.77-1.75,3-4,1.31-6.81s-4.55-4.49-7.32-2.75"/><path class="cls-1" d="M143.39,14.52c-1.13,1.82-.47,2.22-1.59,4a5.55,5.55,0,0,0-.4,4.38c.35,1.48.81,3.06,2.21,3.92,2.78,1.72,7.09,1.05,8.81-1.74,1.12-1.82-.28-2.69.84-4.51,1.72-2.79,1.78-6-1-7.76s-7.14-1.12-8.86,1.67"/><path class="cls-1" d="M47.19,13.63c-2.79,1.72-4.59,5-2.87,7.83,1.12,1.82,2.3,1.09,3.42,2.91,1.72,2.79,4.56,3.79,7.35,2.07,1.39-.86,3-1.81,3.35-3.29S59,19.36,58.12,18c-1.12-1.82-1.33-1.69-2.46-3.51-1.72-2.79-5.69-2.55-8.47-.83"/><path class="cls-1" d="M99.52,1.33c-3.28,0-6.74,1.34-6.76,4.62,0,2.14,1.06,2.15,1,4.29A5.52,5.52,0,0,0,99.43,16a5.36,5.36,0,0,0,3.93-1.77c1.08-1.07,1.24-2.27,1.25-3.91,0-2.14,1.23-2.13,1.24-4.27,0-3.28-3.06-4.68-6.33-4.7"/></svg>